<svg xmlns="http://www.w3.org/2000/svg" viewBox="0 0 280 280">
<defs>
<linearGradient id="rim" x1="0" y1="0" x2=".7" y2="1"><stop stop-color="#ffe673"/><stop offset=".5" stop-color="#ffb92e"/><stop offset="1" stop-color="#e9920a"/></linearGradient>
<linearGradient id="face" x1="0" y1="0" x2="1" y2="1"><stop stop-color="#ffdb56"/><stop offset=".5" stop-color="#ffc43d"/><stop offset="1" stop-color="#ffcc48"/></linearGradient>
<linearGradient id="inner" x1=".2" y1="0" x2=".9" y2="1"><stop stop-color="#e69c00"/><stop offset="1" stop-color="#f6b307"/></linearGradient>
<linearGradient id="tick" x1="0" y1="0" x2="0" y2="1"><stop stop-color="#fffbc1"/><stop offset="1" stop-color="#ffe467"/></linearGradient>
<path id="top" d="M43 140a97 97 0 0 1 194 0"/><path id="bottom" d="M39 140a101 101 0 0 0 202 0"/>
</defs>
<circle cx="140" cy="143" r="130" fill="#d88a0b"/>
<circle cx="140" cy="138" r="130" fill="url(#rim)"/>
<circle cx="140" cy="138" r="124" fill="url(#face)" stroke="#ffdf67" stroke-width="2"/>
<circle cx="140" cy="138" r="87" fill="#d38a00"/>
<circle cx="141" cy="141" r="81" fill="url(#inner)" stroke="#ffd557" stroke-width="3"/>
<path d="m103 139 26 25 50-60 15 14-65 76-42-42Z" fill="#c8850b" opacity=".45" transform="translate(0 4)"/>
<path d="m103 135 26 25 50-60 15 14-65 76-42-42Z" fill="url(#tick)" stroke="#ffed91" stroke-width="1.5" stroke-linejoin="round"/>
<g fill="#c9840a" font-family="Arial,sans-serif" font-size="20" font-weight="800" letter-spacing="3"><text><textPath href="#top" startOffset="50%" text-anchor="middle">CHAPTER</textPath></text><text><textPath href="#bottom" startOffset="50%" text-anchor="middle">COMPLETE</textPath></text></g>
<g fill="#d5890a"><path d="m34 129 3 7 8 1-6 5 2 8-7-4-7 4 2-8-6-5 8-1Z"/><path d="m246 129 3 7 8 1-6 5 2 8-7-4-7 4 2-8-6-5 8-1Z"/></g>
<path d="M36 83a120 120 0 0 1 161-50" stroke="#fff0a4" stroke-width="3" stroke-linecap="round" fill="none" opacity=".7"/>
</svg>
