<svg xmlns="http://www.w3.org/2000/svg" width="240" height="190" viewBox="0 0 240 190" fill="none">
 <defs><linearGradient id="cover" x1="71" y1="26" x2="178" y2="165" gradientUnits="userSpaceOnUse"><stop stop-color="#96B8F5"/><stop offset="1" stop-color="#5E8BE0"/></linearGradient></defs>
 <circle cx="151" cy="87" r="72" fill="#fff" opacity=".32"/><circle cx="196" cy="36" r="13" fill="#F7E4B0"/>
 <ellipse cx="136" cy="168" rx="73" ry="7" fill="#638BC5" opacity=".12"/>
 <g transform="rotate(10 133 96)"><rect x="69" y="27" width="113" height="137" rx="13" fill="url(#cover)"/><rect x="79" y="23" width="96" height="132" rx="10" fill="#fff"/><rect x="103" y="16" width="49" height="15" rx="7" fill="#779CCA"/>
 <g stroke="#CCD9EA" stroke-width="4" stroke-linecap="round"><path d="M117 60h40M117 91h31M117 122h39"/></g>
 <g stroke="#79A2D8" stroke-width="2" stroke-linecap="round" stroke-linejoin="round"><rect x="92" y="52" width="14" height="14" rx="4" fill="#EDF4FF"/><path d="m96 59 3 3 5-7"/><rect x="92" y="84" width="14" height="14" rx="4" fill="#EDF4FF"/><path d="m96 91 3 3 5-7"/><rect x="92" y="115" width="14" height="14" rx="4"/></g></g>
 <g transform="rotate(28 186 122)"><rect x="181" y="82" width="10" height="71" rx="4" fill="#537DC2"/><path d="m181 149 5 14 5-14" fill="#EBCB9D"/><path d="m184 158 2 5 2-5" fill="#41658D"/></g>
 <circle cx="66" cy="121" r="20" fill="#D8EEE4"/><path d="m56 121 7 7 13-15" stroke="#559987" stroke-width="4" stroke-linecap="round" stroke-linejoin="round"/>
 <path d="M51 46v10m-5-5h10M203 72v8m-4-4h8" stroke="#8EAFC9" stroke-width="2" stroke-linecap="round"/>
</svg>
