<svg xmlns="http://www.w3.org/2000/svg" viewBox="0 0 400 280" role="img" aria-labelledby="title desc" font-family="Noto Sans SC, Microsoft YaHei, sans-serif">
<title id="title">上行宝 · 知展 · 名片应用示意</title>
<desc id="desc">正反面的矢量设计预览。文字为示意内容，非印刷生产文件。</desc>
<rect width="400" height="280" fill="#eef1f6"/>

    <g transform="translate(43 34) rotate(-7 130 65)">
      <rect x="3" y="6" width="247" height="137" rx="3" fill="#18294412"/>
      <rect width="247" height="137" rx="3" fill="#3569E8"/>
      <g transform="translate(22 22) scale(0.1328125)" fill="#fff"><path d="M118 214C69 193 44 150 44 72C85 75 118 106 118 159Z"/><path d="M138 214V146C138 96 168 57 212 40C217 121 192 180 138 214Z"/></g><text x="59" y="46.480000000000004" font-size="16.66" fill="#fff" font-weight="700" >上行宝</text>
      <text x="26" y="103" font-size="15" fill="#fff" font-weight="700" >每一步，都向上。</text>
      <text x="26" y="121" font-size="7" fill="#dce7ff" font-weight="400" letter-spacing="2">SHANGXINGBAO</text>
    </g>
    <g transform="translate(107 116) rotate(5 124 68)">
      <rect x="3" y="5" width="247" height="137" rx="3" fill="#18294412"/>
      <rect width="247" height="137" rx="3" fill="#fff"/>
      <rect width="5" height="137" fill="#3569E8"/>
      <text x="23" y="34" font-size="17" fill="#182944" font-weight="700" >姓名 / 职务</text>
      <text x="23" y="57" font-size="10" fill="#606a77" font-weight="400" >上行宝 · 全链路备考</text>
      <path d="M23 73H223" stroke="#e4e8ef"/>
      <text x="23" y="95" font-size="10" fill="#606a77" font-weight="400" >电话：待补充</text>
      <text x="23" y="115" font-size="10" fill="#606a77" font-weight="400" >邮箱：待补充</text>
      <g transform="translate(189 87) scale(0.140625)" fill="#3569E8"><path d="M118 214C69 193 44 150 44 72C85 75 118 106 118 159Z"/><path d="M138 214V146C138 96 168 57 212 40C217 121 192 180 138 214Z"/></g>
    </g>
</svg>